<svg height="149pt" viewBox="0 0 316 149" width="316pt" xmlns="http://www.w3.org/2000/svg" xmlns:xlink="http://www.w3.org/1999/xlink"><clipPath id="a"><path d="m0 0h316v149h-316z"/></clipPath><g clip-path="url(#a)"><path d="m1.6992 39.7-1.6992 1v-40.7l1.6992 1z" transform="translate(44.6504 73)"/><path d="m35.1992 19.35v1.95l-35.1992-20.3 1.6992-1z" transform="translate(44.6504 112.7)"/><path d="m33.5504 0 .85.5v.95l-34.4004 19.85v-1.95z" transform="translate(79.8496 112.7)"/><path d="m28.3998 0 .85 1.5-28.4002 16.4-.8496-1.5z" transform="translate(79.4502 109)"/><path d="m0 .5.85-.5.85.5v38.7l-.85.5-.85-.5z" transform="translate(113.4 73.5)"/><path d="m0 1.3008v-1l1.2002-.3008 33.2002 19.1504v1l-.85.5z" transform="translate(79.8496 53.3496)"/><path d="m1.6992 20.6504-1.6992-1 34.0498-19.6504 1.1494.3008v1z" transform="translate(44.6504 53.3496)"/><g fill-rule="evenodd"><path d="m14.731 5.711c-.695-3.836-2.903-5.711-6.742-5.711-2.352 0-4.246.746-5.543 2.184-1.582 1.73-2.446 4.226-2.446 7.054 0 2.879.887 5.352 2.52 7.055 1.367 1.391 3.094 2.039 5.375 2.039 4.269 0 6.668-2.301 7.195-6.933h-2.301c-.191 1.199-.433 2.015-.793 2.711-.718 1.441-2.207 2.257-4.078 2.257-3.48 0-5.687-2.785-5.687-7.152 0-4.484 2.086-7.246 5.496-7.246 1.414 0 2.734.41 3.453 1.105.648.598 1.008 1.321 1.273 2.637z" transform="translate(142.152 123.869)"/><path d="m11.227 9.528v7.964h2.234v-17.492h-2.234v7.559h-8.996v-7.559h-2.231v17.492h2.231v-7.964z" transform="translate(160.319 124.158)"/><path d="m3.407 6.926h.199l.668-.02c1.75 0 2.648.793 2.648 2.329 0 1.601-.988 2.558-2.648 2.558-1.731 0-2.578-.867-2.688-2.722h-1.586c.071 1.027.25 1.695.559 2.273.648 1.227 1.91 1.855 3.66 1.855 2.633 0 4.328-1.566 4.328-3.984 0-1.625-.633-2.523-2.164-3.047 1.192-.488 1.785-1.371 1.785-2.652 0-2.199-1.461-3.516-3.894-3.516-2.578 0-3.949 1.406-4.004 4.129h1.586c.019-.773.09-1.207.289-1.605.359-.703 1.156-1.137 2.144-1.137 1.411 0 2.258.812 2.258 2.184 0 .902-.328 1.441-1.031 1.73-.43.18-.992.254-2.109.27z" transform="translate(176.232 133.365)"/></g><path d="m25.75 14.4-.85 1.45-24.9-14.4v-.95l.85-.5z" transform="translate(114.25 112.7)"/><path d="m0 2v-2l34.4 19.8496v2z" transform="translate(148.6 52.6504)"/><path d="m0 1.4502.85-1.4502 31.4 18.1006-.85 1.5z" transform="translate(148.2 59.7998)"/><path d="m.85 21.3496-.85-.5v-1l34.35-19.8496v2z" transform="translate(114.25 52.6504)"/><path d="m14.73 5.711c-.695-3.836-2.902-5.711-6.742-5.711-2.3513 0-4.2459.7461-5.5427 2.1836-1.5821 1.7305-2.4453 4.2266-2.4453 7.0547 0 2.8789.8867 5.3516 2.5195 7.0547 1.3672 1.3906 3.0937 2.0391 5.3745 2.0391 4.27 0 6.668-2.3008 7.196-6.9336h-2.301c-.191 1.1992-.434 2.0156-.793 2.7109-.719 1.4414-2.207 2.2578-4.078 2.2578-3.4805 0-5.6876-2.7851-5.6876-7.1523 0-4.4844 2.086-7.2461 5.4966-7.2461 1.414 0 2.734.4101 3.453 1.1055.648.5976 1.007 1.3203 1.273 2.6367z" fill-rule="evenodd" transform="translate(93.252 10.1191)"/><path d="m11.227 9.5273v7.9649h2.234v-17.4922h-2.234v7.5586h-8.997v-7.5586h-2.23v17.4922h2.23v-7.9649z" fill-rule="evenodd" transform="translate(111.419 10.4082)"/><path d="m3.406 6.9258h.2l.667-.0195c1.75 0 2.649.793 2.649 2.3281 0 1.6016-.988 2.5586-2.649 2.5586-1.73 0-2.578-.8672-2.687-2.7227h-1.586c.07 1.0274.25 1.6954.559 2.2735.648 1.2265 1.91 1.8555 3.66 1.8555 2.633 0 4.328-1.5665 4.328-3.9844 0-1.625-.633-2.5235-2.164-3.0469 1.191-.4883 1.785-1.3711 1.785-2.6523 0-2.1993-1.461-3.5157-3.895-3.5157-2.578 0-3.949 1.4063-4.003 4.1289h1.586c.019-.7734.089-1.207.289-1.6054.359-.7032 1.156-1.1367 2.144-1.1367 1.41 0 2.258.8125 2.258 2.1835 0 .9024-.328 1.4415-1.031 1.7305-.43.1797-.993.2539-2.11.2695z" fill-rule="evenodd" transform="translate(127.332 19.6152)"/><path d="m13.6504 0 1.4502.8496-13.9004 24.0996-1.2002.3008v-1.7002z" transform="translate(79.8496 28.4004)"/><path d="m11.2266 9.5273v7.9649h2.2343v-17.4922h-2.2343v7.5586h-8.9961v-7.5586h-2.2305v17.4922h2.2305v-7.9649z" fill-rule="evenodd" transform="translate(24.917 10.4082)"/><path d="m3.4062 6.9258h.1992l.668-.0195c1.75 0 2.6485.793 2.6485 2.3281 0 1.6016-.9883 2.5586-2.6485 2.5586-1.7305 0-2.5781-.8672-2.6875-2.7227h-1.5859c.0703 1.0274.25 1.6954.5586 2.2735.6484 1.2265 1.9101 1.8555 3.6601 1.8555 2.6328 0 4.3282-1.5665 4.3282-3.9844 0-1.625-.6329-2.5235-2.1641-3.0469 1.1914-.4883 1.7851-1.3711 1.7851-2.6523 0-2.1993-1.4609-3.5157-3.8945-3.5157-2.5781 0-3.9492 1.4063-4.0039 4.1289h1.5859c.0196-.7734.0899-1.207.2891-1.6054.3594-.7032 1.1563-1.1367 2.1445-1.1367 1.4102 0 2.2579.8125 2.2579 2.1835 0 .9024-.3282 1.4415-1.0313 1.7305-.4297.1797-.9922.2539-2.1094.2695z" fill-rule="evenodd" transform="translate(40.8301 19.6152)"/><path d="m14.7305 5.711c-.6953-3.836-2.9024-5.711-6.7422-5.711-2.3516 0-4.2461.7461-5.543 2.1836-1.582 1.7305-2.4453 4.2266-2.4453 7.0547 0 2.8789.8867 5.3516 2.5195 7.0547 1.3672 1.3906 3.0938 2.0391 5.375 2.0391 4.2696 0 6.668-2.3008 7.1954-6.9336h-2.3008c-.1914 1.1992-.4336 2.0156-.793 2.7109-.7187 1.4414-2.207 2.2578-4.0781 2.2578-3.4805 0-5.6875-2.7851-5.6875-7.1523 0-4.4844 2.0859-7.2461 5.4961-7.2461 1.414 0 2.7343.4101 3.4531 1.1055.6484.5976 1.0078 1.3203 1.2734 2.6367z" fill-rule="evenodd" transform="translate(51.4121 10.1191)"/><path d="m0 .8496 1.4492-.8496 14 24.2998v1.7002l-1.1494-.3008z" transform="translate(64.4004 27.6504)"/><path d="m33.5 0 .85.5v1l-34.35 19.8496v-2z" transform="translate(183 53.1504)"/><path d="m35.25 19.8496-1.7 1-33.55-19.3496v-1l.85-.5z" transform="translate(217.35 53.1504)"/><path d="m29.25 16.4004-.85 1.4502-28.4-16.4004.85-1.4502z" transform="translate(216.95 59.7998)"/><path d="m1.7 39.7-1.7 1v-39.7l1.7-1z" transform="translate(250.9 73)"/><path d="m8.421 0c-5.011 0-8.421 3.695-8.421 9.168 0 5.492 3.382 9.164 8.449 9.164 2.133 0 4.004-.648 5.422-1.847 1.894-1.606 3.023-4.317 3.023-7.172 0-5.641-3.336-9.313-8.473-9.313zm0 1.969c3.793 0 6.239 2.855 6.239 7.293 0 4.226-2.52 7.105-6.211 7.105-3.746 0-6.215-2.879-6.215-7.199s2.469-7.199 6.187-7.199z" fill-rule="evenodd" transform="translate(278.811 123.869)"/><path d="m11.227 9.528v7.964h2.234v-17.492h-2.234v7.559h-8.996v-7.559h-2.231v17.492h2.231v-7.964z" fill-rule="evenodd" transform="translate(298.564 124.158)"/><path d="m26.2 14.15-.85 1.45-25.35-14.6 1.7-1z" transform="translate(250.9 112.7)"/><path d="m8.421 0c-5.011 0-8.421 3.695-8.421 9.168 0 5.492 3.382 9.164 8.449 9.164 2.133 0 4.004-.648 5.422-1.847 1.894-1.606 3.023-4.317 3.023-7.172 0-5.641-3.336-9.313-8.473-9.313zm0 1.969c3.793 0 6.239 2.855 6.239 7.293 0 4.226-2.52 7.105-6.211 7.105-3.746 0-6.215-2.879-6.215-7.199s2.469-7.199 6.187-7.199z" fill-rule="evenodd" transform="translate(210.061 123.869)"/><path d="m.85 16.8-.85-1.45 26.5-15.35.85 1.5z" transform="translate(227.8 114.15)"/><path d="m.85 16.8-.85-1.5 26.5-15.3.85 1.5z" transform="translate(224.8 109)"/><path d="m8.42185 0c-5.0117 0-8.42185 3.695-8.42185 9.168 0 5.492 3.38281 9.164 8.44925 9.164 2.13275 0 4.00385-.648 5.42175-1.847 1.8946-1.606 3.0235-4.317 3.0235-7.172 0-5.641-3.336-9.313-8.47265-9.313zm0 1.969c3.79295 0 6.23825 2.855 6.23825 7.293 0 4.226-2.5195 7.105-6.21085 7.105-3.74613 0-6.21488-2.879-6.21488-7.199s2.46875-7.199 6.18748-7.199z" fill-rule="evenodd" transform="translate(3.81055 123.869)"/><path d="m.8506 16.8-.8506-1.45 26.5-15.35.8506 1.5z" transform="translate(21.5498 114.15)"/><path d="m.8506 16.8-.8506-1.5 26.5498-15.3.8008 1.5z" transform="translate(18.5498 109)"/><path d="m14.731 5.71095c-.695-3.83594-2.903-5.71095-6.742-5.71095-2.352 0-4.246.7461-5.543 2.1836-1.582 1.73047-2.446 4.22655-2.446 7.05465 0 2.87885.887 5.35165 2.52 7.05465 1.367 1.3907 3.094 2.0391 5.375 2.0391 4.269 0 6.668-2.3007 7.195-6.9335h-2.301c-.191 1.1991-.433 2.0155-.793 2.7108-.718 1.4414-2.207 2.2578-4.078 2.2578-3.48 0-5.687-2.7851-5.687-7.15225 0-4.48438 2.086-7.24609 5.496-7.24609 1.414 0 2.734.41015 3.453 1.10546.648.59766 1.008 1.32032 1.273 2.63673z" fill-rule="evenodd" transform="translate(210.902 4.76855)"/><path d="m11.227 9.52738v7.96482h2.234v-17.4922h-2.234v7.55858h-8.996v-7.55858h-2.231v17.4922h2.231v-7.96482z" fill-rule="evenodd" transform="translate(229.069 5.05762)"/><path d="m3.407 6.9258h.199l.668-.0195c1.75 0 2.648.793 2.648 2.3281 0 1.6016-.988 2.5586-2.648 2.5586-1.731 0-2.578-.8672-2.688-2.7226h-1.586c.071 1.0273.25 1.6953.559 2.2734.648 1.2266 1.91 1.8555 3.66 1.8555 2.633 0 4.328-1.5664 4.328-3.9844 0-1.625-.633-2.5234-2.164-3.0469 1.192-.4883 1.785-1.3711 1.785-2.6523 0-2.1992-1.461-3.5157-3.894-3.5157-2.578 0-3.949 1.4063-4.004 4.129h1.586c.019-.7735.09-1.2071.289-1.6055.359-.7031 1.156-1.1367 2.144-1.1367 1.411 0 2.258.8125 2.258 2.1836 0 .9023-.328 1.4414-1.031 1.7304-.43.1797-.992.2539-2.109.2696z" fill-rule="evenodd" transform="translate(244.982 14.2646)"/><path d="m0 0h1.7v28.1006l-.85.5-.85-.5z" transform="translate(216.5 25.0498)"/><path d="m8.421 0c-5.011 0-8.421 3.6954-8.421 9.168 0 5.4922 3.382 9.1641 8.449 9.1641 2.133 0 4.004-.648 5.422-1.848 1.894-1.6051 3.023-4.3161 3.023-7.1716 0-5.6406-3.336-9.3125-8.473-9.3125zm0 1.9688c3.793 0 6.239 2.8555 6.239 7.293 0 4.2265-2.52 7.1053-6.211 7.1053-3.746 0-6.215-2.8788-6.215-7.1991s2.469-7.1992 6.187-7.1992z" fill-rule="evenodd" transform="translate(141.311 84.1689)"/><path d="m11.227 9.5274v7.9646h2.234v-17.492h-2.234v7.5586h-8.996v-7.5586h-2.231v17.492h2.231v-7.9646z" fill-rule="evenodd" transform="translate(161.064 84.458)"/><path d="m5.15.6494-3.8 6.6504-1.35-1.0498 3.6-6.25z" transform="translate(135.9 83.9004)"/><path d="m4.65.6504-3.3 5.7002-1.35-1.0498 3.05-5.3008z" transform="translate(132.2 82.0996)"/><path d="m4.05.6504-2.7 4.75-1.35-1.0498 2.5-4.3506z" transform="translate(128.55 80.2998)"/><path d="m3.55.6504-2.2 3.75-1.35-1 1.95-3.4004z" transform="translate(124.85 78.5)"/><path d="m2.95.6494-1.6 2.8008-1.35-1.0508 1.4-2.3994z" transform="translate(121.2 76.7002)"/><path d="m2.45.6494-1.1 1.8506-1.35-1.0508.85-1.4492z" transform="translate(117.5 74.9004)"/></g></svg>