<svg height="1030" style="color-interpolation:auto;stroke:#000;stroke-linecap:square;stroke-miterlimit:10;font-family:&apos;Dialog&apos;;font-size:12" width="1165" xmlns="http://www.w3.org/2000/svg" xmlns:xlink="http://www.w3.org/1999/xlink"><clipPath id="a"><path color-interpolation="auto" d="m0 0h1165v1030h-1165z"/></clipPath><clipPath id="b"><path color-interpolation="auto" d="m779.125 39c13.46191406 0 24.375 12.75988388 24.375 28.5v41.80000305c0 15.74011231-10.91308594 28.5-24.375 28.5h-22.75c-13.46191406 0-24.375-12.75988769-24.375-28.5v-41.80000305c0-15.74011612 10.91308594-28.5 24.375-28.5zm166.22497559 210c26.09545898 0 47.25 12.7598877 47.25 28.5v41.79998779c0 15.74014283-21.15454102 28.5-47.25 28.5h-44.09997559c-26.09545898 0-47.25-12.75985717-47.25-28.5v-41.79998779c0-15.7401123 21.15454102-28.5 47.25-28.5zm-945.34997559-249v1030h1165v-1030z"/></clipPath><g font-family="&apos;Arial&apos;" font-size="84" shape-rendering="geometricPrecision" text-rendering="optimizeLegibility"><text clip-path="url(#a)" stroke="none" x="854" xml:space="preserve" y="325">OH       </text><text clip-path="url(#a)" stroke="none" x="732" xml:space="preserve" y="115">O       </text><g fill="none" stroke-linecap="round" stroke-linejoin="bevel" stroke-width="5.472433"><path clip-path="url(#b)" d="m643.32058 296.117882 121.641161-70.229557"/><path clip-path="url(#b)" d="m764.961741 225.888325 87.960676 50.78412"/><path clip-path="url(#b)" d="m752.32042 233.186795v-108.86671"/><path clip-path="url(#b)" d="m777.603061 233.186795v-108.86671"/><path clip-path="url(#b)" d="m643.32058 296.117882-121.64116-70.229557"/><path clip-path="url(#b)" d="m521.67942 225.888325-121.641161 70.229557"/><path clip-path="url(#b)" d="m400.038259 296.117882-121.64116-70.229557"/><path clip-path="url(#b)" d="m278.397099 225.888325-121.64116 70.229557"/><path clip-path="url(#b)" d="m278.397099 255.082203-96.35852 55.632618"/><path clip-path="url(#b)" d="m156.755939 296.117882v140.459113"/><path clip-path="url(#b)" d="m156.755939 436.576995-121.641161 70.229557"/><path clip-path="url(#b)" d="m35.114778 506.806552v140.459113"/><path clip-path="url(#b)" d="m60.397419 521.403491v111.265235"/><path clip-path="url(#b)" d="m35.114778 647.265665 121.641161 70.229557"/><path clip-path="url(#b)" d="m156.755939 717.495222v140.459113"/><path clip-path="url(#b)" d="m156.755939 857.954335 121.64116 70.229557"/><path clip-path="url(#b)" d="m182.038579 843.357396 96.35852 55.632617"/><path clip-path="url(#b)" d="m278.397099 928.183892 121.64116-70.229557"/><path clip-path="url(#b)" d="m400.038259 857.954335 121.641161 70.229557"/><path clip-path="url(#b)" d="m521.67942 928.183892 121.64116-70.229557"/><path clip-path="url(#b)" d="m521.67942 898.990013 96.35852-55.632617"/><path clip-path="url(#b)" d="m643.32058 857.954335v-140.459113"/><path clip-path="url(#b)" d="m643.32058 717.495222 121.641161-70.229557"/><path clip-path="url(#b)" d="m764.961741 647.265665 121.64116 70.229557"/><path clip-path="url(#b)" d="m886.602901 717.495222 121.64116-70.229557"/><path clip-path="url(#b)" d="m1008.244061 647.265665 121.641161 70.229557"/></g></g></svg>