<svg enable-background="new 0 0 420.9 232.5" viewBox="0 0 420.9 232.5" xmlns="http://www.w3.org/2000/svg"><path d="m347.1 160-45.8 12.5-28.6-49.4-2 1.2 27.4 47.5-74.7-23.1-65.1 17-46.2-58.1 70.5 18.6 2.3.6 2.2-.6 54.5-14.3-.6-2.3-55.7 14.6-35.3-42-.8-1 .5-1.1 14.7-31.4-2.2-1-12.7 27.3h-39.2v2.4h38.1l-1.7 3.5-.3.7.6.8 2.6 3h-39.3v2.4h41.3l29.9 35.6-71.9-18.9-.7-.2-.4.1-35.4 10.2.6 2.3 33.6-9.7 1.1-.3 37.2 64.9-32.4-9.2-.6 2.3 34.7 9.9 2.5 4.3 76.3-20 .3.1 15.5 26.7 2-1.2-14.3-24.8 70.8 15.1.3.1.3-.1h.3l1.6-.5 44.9-12.2z"/><path d="m254.2 118.2c3.1 1.8 7 1.8 7 1.8 3.9 0 7-1.8 7-1.8 3.1-1.8 4.9-5.2 4.9-5.2 1.8-3.4 1.8-7.8 1.8-7.8 0-4.5-1.8-7.8-1.8-7.8-1.8-3.4-4.9-5.2-4.9-5.2-3.1-1.8-7-1.8-7-1.8-3.9 0-7 1.8-7 1.8-3.1 1.8-4.9 5.2-4.9 5.2-1.8 3.4-1.8 7.8-1.8 7.8 0 4.4 1.8 7.7 1.8 7.7 1.8 3.5 4.9 5.3 4.9 5.3zm-1.5-19c1.2-2.7 3.4-4 3.4-4 2.2-1.4 5.1-1.4 5.1-1.4 2.9 0 5.1 1.4 5.1 1.4 2.2 1.4 3.4 4 3.4 4 1.2 2.6 1.2 6.2 1.2 6.2 0 3.6-1.3 6.2-1.3 6.2-1.2 2.6-3.4 4-3.4 4-2.2 1.4-5.1 1.4-5.1 1.4-2.8 0-5-1.4-5-1.4-2.2-1.4-3.5-4-3.5-4-1.2-2.6-1.2-6.1-1.2-6.1 0-3.7 1.3-6.3 1.3-6.3z"/><path d="m374.4 142.5c-3.1-1.8-7-1.8-7-1.8-3.9 0-7 1.8-7 1.8-3.1 1.8-4.9 5.2-4.9 5.2-1.8 3.4-1.8 7.8-1.8 7.8 0 4.4 1.8 7.7 1.8 7.7 1.8 3.4 4.9 5.2 4.9 5.2 3.1 1.9 7 1.9 7 1.9 3.9 0 7-1.8 7-1.8 3.1-1.8 4.9-5.2 4.9-5.2 1.8-3.4 1.8-7.8 1.8-7.8 0-4.4-1.8-7.8-1.8-7.8-1.9-3.4-4.9-5.2-4.9-5.2zm1.4 19.2c-1.3 2.6-3.5 4-3.5 4-2.2 1.4-5.1 1.4-5.1 1.4-2.8 0-5-1.4-5-1.4-2.2-1.4-3.5-4-3.5-4-1.2-2.6-1.2-6.1-1.2-6.1 0-3.6 1.2-6.2 1.2-6.2 1.2-2.6 3.4-4 3.4-4 2.2-1.4 5.1-1.4 5.1-1.4 2.9 0 5.1 1.4 5.1 1.4 2.2 1.4 3.4 4 3.4 4 1.2 2.6 1.2 6.2 1.2 6.2.2 3.5-1.1 6.1-1.1 6.1z"/><path d="m402.9 141.2v11.7h-14.1v-11.7h-3.8v28.6h3.8v-13.5h14.1v13.5h3.8v-28.6z"/><path d="m260.6 190.5c-3.1-1.8-7-1.8-7-1.8-3.9 0-7 1.8-7 1.8-3.1 1.8-4.9 5.2-4.9 5.2-1.8 3.4-1.8 7.8-1.8 7.8 0 4.3 1.8 7.7 1.8 7.7 1.8 3.4 4.9 5.2 4.9 5.2 3.1 1.8 7 1.8 7 1.8 3.9 0 7-1.8 7-1.8 3.1-1.8 4.9-5.2 4.9-5.2 1.8-3.4 1.8-7.8 1.8-7.8 0-4.5-1.8-7.8-1.8-7.8-1.8-3.2-4.9-5.1-4.9-5.1zm1.5 19.3c-1.2 2.6-3.4 4-3.4 4-2.2 1.4-5.1 1.4-5.1 1.4-2.8 0-5-1.4-5-1.4-2.2-1.4-3.5-4-3.5-4-1.2-2.6-1.2-6.1-1.2-6.1 0-3.6 1.2-6.2 1.2-6.2 1.2-2.7 3.4-4 3.4-4 2.2-1.4 5.1-1.4 5.1-1.4 2.9 0 5.1 1.4 5.1 1.4 2.2 1.4 3.4 4 3.4 4 1.2 2.6 1.2 6.2 1.2 6.2.1 3.5-1.2 6.1-1.2 6.1z"/><path d="m289.2 201h-14.1v-11.8h-3.8v28.6h3.8v-13.4h14.1v13.4h3.8v-28.6h-3.8z"/><path d="m65.5 129c1.8-3.4 1.8-7.8 1.8-7.8 0-4.5-1.8-7.8-1.8-7.8-1.8-3.4-4.9-5.2-4.9-5.2-3.1-1.8-7-1.8-7-1.8-3.9 0-7 1.8-7 1.8-3.2 1.8-4.9 5.2-4.9 5.2-1.8 3.4-1.8 7.8-1.8 7.8 0 4.4 1.8 7.7 1.8 7.7 1.8 3.4 4.9 5.2 4.9 5.2 3.2 1.8 7.1 1.8 7.1 1.8 3.9 0 7-1.8 7-1.8 3-1.8 4.8-5.1 4.8-5.1zm-6.9 2.4c-2.2 1.4-5 1.4-5 1.4-2.8 0-5-1.4-5-1.4-2.2-1.4-3.5-4-3.5-4-1.2-2.6-1.2-6.1-1.2-6.1 0-3.6 1.2-6.2 1.2-6.2 1.2-2.7 3.5-4 3.5-4 2.2-1.4 5.1-1.4 5.1-1.4 2.9 0 5.1 1.4 5.1 1.4 2.2 1.4 3.5 4 3.5 4 1.2 2.6 1.2 6.2 1.2 6.2 0 3.6-1.2 6.2-1.2 6.2-1.5 2.5-3.7 3.9-3.7 3.9z"/><path d="m32 118.6h-14v-11.8h-3.8v28.7h3.8v-13.5h14v13.5h3.8v-28.7h-3.8z"/><path d="m83.2 94.1c3.1 1.8 7 1.8 7 1.8 3.9 0 7-1.8 7-1.8 3.1-1.8 4.9-5.2 4.9-5.2 1.8-3.4 1.8-7.8 1.8-7.8 0-4.5-1.8-7.8-1.8-7.8-1.8-3.3-4.9-5.2-4.9-5.2-3.1-1.8-7-1.8-7-1.8-3.9 0-7 1.8-7 1.8-3.1 1.8-4.9 5.2-4.9 5.2-1.8 3.4-1.8 7.8-1.8 7.8 0 4.3 1.8 7.7 1.8 7.7 1.8 3.4 4.9 5.3 4.9 5.3zm-1.5-19.1c1.2-2.6 3.4-4 3.4-4 2.2-1.4 5.1-1.4 5.1-1.4 2.9 0 5.1 1.4 5.1 1.4 2.2 1.4 3.4 4 3.4 4 1.2 2.6 1.2 6.2 1.2 6.2 0 3.6-1.3 6.2-1.3 6.2-1.2 2.6-3.4 4-3.4 4-2.2 1.4-5.1 1.4-5.1 1.4-2.8 0-5-1.4-5-1.4-2.2-1.4-3.5-4-3.5-4-1.2-2.6-1.2-6.1-1.2-6.1 0-3.6 1.3-6.3 1.3-6.3z"/><path d="m165.1 41.9c3.2 1.8 7.1 1.8 7.1 1.8 3.9 0 7-1.8 7-1.8 3.1-1.8 4.9-5.2 4.9-5.2 1.8-3.4 1.8-7.8 1.8-7.8 0-4.5-1.8-7.8-1.8-7.8-1.8-3.3-4.9-5.2-4.9-5.2-3.1-1.8-7-1.8-7-1.8-3.9 0-7 1.8-7 1.8-3.2 1.8-4.9 5.2-4.9 5.2-1.8 3.4-1.8 7.8-1.8 7.8 0 4.3 1.8 7.7 1.8 7.7 1.7 3.4 4.8 5.3 4.8 5.3zm-1.5-19.1c1.2-2.6 3.5-4 3.5-4 2.2-1.4 5.1-1.4 5.1-1.4 2.9 0 5.1 1.4 5.1 1.4 2.2 1.4 3.5 4 3.5 4 1.2 2.6 1.2 6.2 1.2 6.2 0 3.6-1.2 6.2-1.2 6.2-1.2 2.6-3.5 4-3.5 4-2.2 1.4-5 1.4-5 1.4-2.8 0-5-1.4-5-1.4-2.2-1.4-3.5-4-3.5-4-1.2-2.6-1.2-6.1-1.2-6.1-.2-3.6 1-6.3 1-6.3z"/><path d="m193.7 29.8h14v13.5h3.9v-28.7h-3.9v11.8h-14v-11.8h-3.8v28.7h3.8z"/><path d="m100 144.8c-3.1-1.8-7-1.8-7-1.8-3.9 0-7 1.8-7 1.8-3.1 1.8-4.9 5.2-4.9 5.2-1.8 3.4-1.8 7.8-1.8 7.8 0 4.4 1.8 7.7 1.8 7.7 1.8 3.4 4.9 5.2 4.9 5.2 3.1 1.8 7 1.8 7 1.8 3.9 0 7-1.8 7-1.8 3.1-1.8 4.9-5.2 4.9-5.2 1.8-3.4 1.8-7.8 1.8-7.8 0-4.5-1.8-7.8-1.8-7.8-1.7-3.3-4.9-5.1-4.9-5.1zm1.6 19.2c-1.3 2.6-3.5 4-3.5 4-2.2 1.4-5.1 1.4-5.1 1.4-2.8 0-5-1.4-5-1.4-2.2-1.4-3.5-4-3.5-4-1.2-2.6-1.2-6.1-1.2-6.1 0-3.6 1.2-6.2 1.2-6.2 1.2-2.6 3.4-4 3.4-4 2.2-1.4 5.1-1.4 5.1-1.4 2.9 0 5.1 1.4 5.1 1.4 2.2 1.4 3.4 4 3.4 4 1.2 2.6 1.2 6.2 1.2 6.2.1 3.5-1.1 6.1-1.1 6.1z"/><path d="m71.5 155.2h-14.1v-11.7h-3.8v28.6h3.8v-13.5h14.1v13.5h3.8v-28.6h-3.8z"/></svg>