<svg enable-background="new 0 0 255.572 115.581" height="115.581" viewBox="0 0 255.572 115.581" width="255.572" xmlns="http://www.w3.org/2000/svg"><g transform="matrix(.95 0 0 .95 6.3893 2.88955)"><path d="m0 96.784v-17.187h2.281v7.063h8.891v-7.063h2.281v17.188h-2.281v-8.095h-8.891v8.094z"/><path d="m16.551 88.419c0-2.852.766-5.085 2.298-6.699 1.532-1.613 3.51-2.42 5.933-2.42 1.587 0 3.017.379 4.291 1.137s2.245 1.815 2.914 3.171c.668 1.356 1.002 2.894 1.002 4.612 0 1.742-.352 3.302-1.055 4.677-.704 1.376-1.7 2.417-2.99 3.124s-2.681 1.061-4.174 1.061c-1.618 0-3.064-.391-4.338-1.172s-2.239-1.848-2.896-3.2c-.657-1.353-.985-2.783-.985-4.291zm2.344.029c0 2.07.557 3.701 1.671 4.893s2.512 1.787 4.192 1.787c1.712 0 3.121-.602 4.228-1.805 1.106-1.203 1.659-2.91 1.659-5.121 0-1.398-.236-2.619-.709-3.662s-1.165-1.852-2.076-2.426-1.933-.861-3.066-.861c-1.61 0-2.996.553-4.157 1.658s-1.742 2.951-1.742 5.537z"/></g><path d="m38.84415 81.6303-.8075-1.425 24.415-14.10845v1.8525z"/><path d="m62.45165 67.94935v-1.8525l32.68 18.85845v1.8525z"/><path d="m95.13165 86.8078v-1.8525l31.82405-18.38345.80845.475-.52345 1.1875z"/><path d="m129.04665 68.70935-1.2825-1.6625.8075-.475 31.825 18.38345v1.8525z"/><path d="m160.39665 86.8078v-1.8525l32.68-18.85845v1.8525z"/><g transform="matrix(.95 0 0 .95 6.3893 2.88955)"><path d="m222.669 88.419c0-2.852.766-5.085 2.297-6.699 1.533-1.613 3.51-2.42 5.934-2.42 1.586 0 3.017.379 4.291 1.137 1.273.758 2.244 1.815 2.913 3.171s1.003 2.894 1.003 4.612c0 1.742-.352 3.302-1.056 4.677-.704 1.376-1.7 2.417-2.989 3.124-1.291.707-2.682 1.061-4.174 1.061-1.619 0-3.064-.391-4.338-1.172-1.275-.781-2.24-1.848-2.896-3.2-.656-1.353-.985-2.783-.985-4.291zm2.344.029c0 2.07.557 3.701 1.67 4.893 1.115 1.191 2.512 1.787 4.193 1.787 1.711 0 3.121-.602 4.227-1.805s1.66-2.91 1.66-5.121c0-1.398-.236-2.619-.71-3.662s-1.165-1.852-2.075-2.426c-.911-.574-1.934-.861-3.066-.861-1.611 0-2.996.553-4.158 1.658-1.161 1.106-1.741 2.951-1.741 5.537z"/><path d="m242.119 96.784v-17.187h2.281v7.063h8.891v-7.063h2.281v17.188h-2.281v-8.095h-8.891v8.094z"/></g><path d="m193.07665 67.94935v-1.8525l24.41405 14.10845-.80655 1.3775z"/><path d="m126.9557 28.9053 1.61595.9025v36.76405l-.8075.475-.80845-.475z"/><g transform="matrix(.95 0 0 .95 6.3893 2.88955)"><path d="m129.819 106.919c0-2.852.766-5.085 2.298-6.699 1.532-1.613 3.51-2.42 5.933-2.42 1.587 0 3.017.379 4.291 1.137s2.245 1.815 2.913 3.171c.669 1.356 1.003 2.894 1.003 4.612 0 1.742-.352 3.302-1.056 4.677-.703 1.376-1.699 2.417-2.989 3.124s-2.681 1.061-4.174 1.061c-1.618 0-3.064-.391-4.338-1.172s-2.239-1.848-2.896-3.2c-.657-1.353-.985-2.783-.985-4.291zm2.344.029c0 2.07.557 3.701 1.671 4.893s2.512 1.787 4.192 1.787c1.712 0 3.121-.602 4.228-1.805 1.105-1.203 1.659-2.91 1.659-5.121 0-1.398-.236-2.619-.71-3.662-.473-1.043-1.164-1.852-2.075-2.426s-1.933-.861-3.066-.861c-1.61 0-2.996.553-4.157 1.658s-1.742 2.951-1.742 5.537z"/><path d="m149.268 115.284v-17.187h2.281v7.063h8.891v-7.063h2.281v17.188h-2.281v-8.094h-8.891v8.094h-2.281z"/></g><path d="m135.7432 93.7428-1.56655.37905-6.93595-25.8875.52345-1.1875 1.2825 1.6625z"/><path d="m50.819 28.97c0-2.852.766-5.085 2.298-6.699 1.532-1.613 3.51-2.42 5.933-2.42 1.587 0 3.017.379 4.291 1.137s2.245 1.815 2.914 3.171c.668 1.356 1.002 2.894 1.002 4.612 0 1.742-.352 3.302-1.055 4.677-.704 1.376-1.7 2.417-2.99 3.124s-2.681 1.061-4.174 1.061c-1.618 0-3.064-.391-4.338-1.172s-2.239-1.848-2.896-3.2c-.657-1.353-.985-2.783-.985-4.291zm2.344.029c0 2.07.557 3.701 1.671 4.893s2.512 1.787 4.192 1.787c1.712 0 3.121-.602 4.228-1.805 1.106-1.203 1.659-2.91 1.659-5.121 0-1.398-.236-2.619-.709-3.662s-1.165-1.852-2.076-2.426-1.933-.861-3.066-.861c-1.61 0-2.996.553-4.157 1.658s-1.742 2.951-1.742 5.537z" transform="matrix(.95 0 0 .95 6.3893 2.88955)"/><path d="m58.840702 40.732799h1.615v27.92905h-1.615z"/><path d="m64.494148 40.732799h1.615v27.92905h-1.615z"/><path d="m188.269 28.97c0-2.852.766-5.085 2.297-6.699 1.533-1.613 3.51-2.42 5.934-2.42 1.586 0 3.017.379 4.291 1.137 1.273.758 2.244 1.815 2.913 3.171s1.003 2.894 1.003 4.612c0 1.742-.352 3.302-1.056 4.677-.704 1.376-1.7 2.417-2.989 3.124-1.291.707-2.682 1.061-4.174 1.061-1.619 0-3.064-.391-4.338-1.172-1.275-.781-2.24-1.848-2.896-3.2-.657-1.353-.985-2.783-.985-4.291zm2.344.029c0 2.07.557 3.701 1.67 4.893 1.115 1.191 2.512 1.787 4.193 1.787 1.711 0 3.121-.602 4.227-1.805s1.66-2.91 1.66-5.121c0-1.398-.236-2.619-.71-3.662s-1.165-1.852-2.075-2.426c-.911-.574-1.934-.861-3.066-.861-1.611 0-2.996.553-4.158 1.658-1.161 1.105-1.741 2.951-1.741 5.537z" transform="matrix(.95 0 0 .95 6.3893 2.88955)"/><path d="m189.4182 40.732799h1.61595v27.92905h-1.61595z"/><path d="m195.07166 40.732799h1.61405v27.92905h-1.61405z"/><path d="m85.219 9.119c0-2.852.766-5.085 2.298-6.699 1.532-1.613 3.509-2.42 5.932-2.42 1.587 0 3.017.379 4.291 1.137s2.245 1.815 2.914 3.171c.668 1.356 1.002 2.894 1.002 4.612 0 1.742-.352 3.302-1.055 4.677-.704 1.376-1.7 2.417-2.99 3.124s-2.681 1.061-4.174 1.061c-1.618 0-3.064-.391-4.338-1.172s-2.239-1.848-2.896-3.2c-.656-1.352-.984-2.783-.984-4.291zm2.344.029c0 2.07.557 3.701 1.671 4.893s2.512 1.787 4.192 1.787c1.712 0 3.121-.602 4.228-1.805 1.106-1.203 1.659-2.91 1.659-5.121 0-1.398-.236-2.619-.709-3.662s-1.165-1.852-2.076-2.426-1.933-.861-3.066-.861c-1.61 0-2.996.553-4.157 1.658s-1.742 2.952-1.742 5.537z" transform="matrix(.95 0 0 .95 6.3893 2.88955)"/><path d="m102.5407 18.9778.80845-1.37845 24.84155 14.2975-.80655 1.425z"/><path d="m105.34415 14.08435.8075-1.37655 24.84155 14.2975-.8075 1.425z"/><g transform="matrix(.95 0 0 .95 6.3893 2.88955)"><path d="m153.869 9.119c0-2.852.766-5.085 2.298-6.699 1.532-1.613 3.51-2.42 5.933-2.42 1.587 0 3.018.379 4.291 1.137s2.245 1.815 2.914 3.171c.668 1.356 1.002 2.894 1.002 4.612 0 1.742-.352 3.302-1.055 4.677-.704 1.376-1.701 2.417-2.99 3.124-1.29.707-2.682 1.061-4.174 1.061-1.618 0-3.064-.391-4.338-1.172s-2.239-1.848-2.896-3.2-.985-2.783-.985-4.291zm2.343.029c0 2.07.557 3.701 1.671 4.893s2.512 1.787 4.192 1.787c1.712 0 3.121-.602 4.228-1.805s1.659-2.91 1.659-5.121c0-1.398-.236-2.619-.709-3.662-.474-1.043-1.166-1.852-2.076-2.426s-1.933-.861-3.066-.861c-1.61 0-2.996.553-4.157 1.658s-1.742 2.952-1.742 5.537z"/><path d="m173.318 17.484v-17.187h2.281v7.063h8.891v-7.063h2.281v17.188h-2.281v-8.094h-8.891v8.094h-2.281z"/></g><path d="m150.65915 15.22435.80655 1.37845-22.89405 13.205-1.61595-.9025z"/></svg>