<svg enable-background="new 0 0 356 117" height="117" viewBox="0 0 356 117" width="356" xmlns="http://www.w3.org/2000/svg"><g stroke="#000" stroke-linecap="round"><path d="m62.283 60.062h-23.81"/><path d="m74.189 39.447-11.906 20.615"/><path d="m75.665 79.262-12.09-20.976"/><path d="m98.276 39.447 11.939-20.646"/><path d="m324.516 60.062-11.906-20.614"/><path d="m318.347 60.188-8.93-15.46"/><path d="m288.799 39.447-11.906-20.646"/><path d="m312.609 80.674 11.906-20.612"/><path d="m205.46 101.289h-23.811"/><path d="m202.484 95.883h-17.859"/><path d="m169.743 39.447h-23.811"/><path d="m217.366 39.447-11.906 20.615"/><path d="m220.559 44.729-8.93 15.46"/><path d="m181.649 60.062-11.906-20.614"/><path d="m175.48 60.188-8.929-15.46"/><path d="m241.177 39.447h-23.811"/><path d="m324.516 101.289-11.906-20.615"/><path d="m205.46 60.062 11.906 20.612"/><path d="m276.893 18.801h-23.81"/><path d="m273.916 24.206h-17.856"/><path d="m145.933 39.447-11.905-20.646"/><path d="m74.466 39.447h23.811"/><path d="m181.649 101.289-11.906-20.615"/><path d="m134.027 18.801h-23.812"/><path d="m131.051 24.206h-17.858"/><path d="m169.743 80.674 11.906-20.612"/><path d="m312.609 39.447h-23.811"/><path d="m253.083 18.801-11.906 20.646"/><path d="m217.366 80.674-11.906 20.615"/></g><path d="m24.435 60.493c0-2.008.539-3.579 1.616-4.715 1.078-1.135 2.469-1.703 4.174-1.703 1.116 0 2.121.268 3.018.8.896.534 1.579 1.277 2.051 2.232.469.954.704 2.035.704 3.245 0 1.226-.247 2.322-.742 3.29-.495.97-1.195 1.702-2.103 2.197-.907.498-1.886.748-2.937.748-1.139 0-2.156-.275-3.052-.825s-1.575-1.301-2.037-2.251c-.463-.952-.692-1.956-.692-3.018zm1.648.025c0 1.458.392 2.604 1.177 3.444.783.838 1.768 1.256 2.947 1.256 1.204 0 2.196-.423 2.974-1.271.78-.846 1.168-2.047 1.168-3.604 0-.984-.165-1.843-.5-2.578-.332-.733-.818-1.302-1.458-1.706-.643-.404-1.359-.605-2.159-.605-1.132 0-2.106.388-2.924 1.167-.816.778-1.225 2.076-1.225 3.897zm58.45 27.577c0 1.062-.229 2.067-.692 3.02-.462.95-1.14 1.702-2.036 2.251-.896.55-1.915.825-3.053.825-1.051 0-2.029-.249-2.936-.747-.908-.497-1.608-1.229-2.104-2.197s-.742-2.065-.742-3.292c0-1.208.235-2.29.704-3.244.472-.955 1.154-1.698 2.051-2.232.896-.533 1.901-.8 3.018-.8 1.705 0 3.097.568 4.175 1.703s1.615 2.706 1.615 4.713zm-1.648.025c0-1.819-.409-3.119-1.226-3.896-.815-.779-1.791-1.168-2.923-1.168-.799 0-1.517.202-2.158.606-.639.404-1.127.973-1.459 1.707-.332.733-.498 1.594-.498 2.578 0 1.556.389 2.757 1.166 3.604s1.77 1.27 2.974 1.27c1.183 0 2.165-.418 2.948-1.257.784-.839 1.176-1.986 1.176-3.444zm-62.82-21.738v-5.698h-6.286v5.698h-1.6v-12.092h1.6v4.968h6.286v-4.968h1.601v12.092z"/><path d="m72.213 81.127-12.035-20.958" stroke="#000" stroke-linecap="round"/><path d="m55.933 49.168v-.891c.836-.082 1.419-.218 1.749-.408.329-.191.576-.643.739-1.354h.915v9.188h-1.237v-6.534h-2.166z" fill="#0072ff"/><path d="m108.255 15.502v-2.259h-4.05v-1.136l4.23-5.858h.981v5.981h1.359v1.013h-1.359v2.259zm-.019-3.272v-4.18l-2.961 4.181h2.961z" fill="#0072ff"/><path d="m171.062 107.969v-.891c.835-.081 1.418-.217 1.748-.408s.577-.643.739-1.354h.916v9.188h-1.238v-6.534h-2.165z" fill="#0072ff"/><path d="m183.296 106.746c.413.761.619 1.804.619 3.128 0 1.255-.187 2.293-.561 3.114-.541 1.18-1.426 1.768-2.654 1.768-1.108 0-1.934-.481-2.475-1.445-.45-.804-.676-1.883-.676-3.237 0-1.049.135-1.949.405-2.702.507-1.402 1.424-2.103 2.751-2.103 1.195 0 2.06.492 2.591 1.477zm-1.164 6.151c.357-.534.536-1.527.536-2.981 0-1.05-.129-1.914-.388-2.591-.259-.678-.761-1.017-1.506-1.017-.686 0-1.187.322-1.503.965-.317.644-.476 1.592-.476 2.843 0 .941.102 1.698.304 2.271.311.873.841 1.309 1.591 1.309.604 0 1.084-.265 1.442-.799z" fill="#0072ff"/><path d="m190.861 49.168v-.891c.836-.082 1.419-.218 1.748-.408.33-.191.577-.643.74-1.354h.915v9.188h-1.237v-6.534h-2.166z" fill="#0072ff"/><path d="m197.993 55.057c-.491-.599-.737-1.327-.737-2.186h1.209c.052.596.164 1.028.335 1.298.302.485.846.727 1.633.727.611 0 1.102-.163 1.472-.489.369-.327.555-.748.555-1.264 0-.636-.194-1.081-.584-1.335-.389-.254-.929-.381-1.62-.381-.078 0-.156.002-.236.003-.079.002-.159.004-.241.007v-1.021c.12.011.221.019.302.021.082.005.17.006.264.006.432 0 .787-.068 1.065-.205.488-.24.731-.669.731-1.286 0-.458-.162-.812-.488-1.061s-.706-.373-1.139-.373c-.772 0-1.307.257-1.603.771-.163.283-.255.686-.276 1.208h-1.144c0-.687.137-1.27.412-1.751.472-.857 1.302-1.287 2.491-1.287.94 0 1.668.21 2.183.629.516.418.773 1.024.773 1.818 0 .567-.153 1.026-.46 1.379-.188.219-.435.391-.736.515.487.134.868.391 1.142.771s.411.847.411 1.397c0 .882-.29 1.6-.87 2.155s-1.402.832-2.468.832c-1.093 0-1.884-.299-2.376-.898z" fill="#0072ff"/><path d="m177.377 26.827v1.009c-.297.29-.691.792-1.184 1.505-.492.714-.929 1.482-1.307 2.308-.374.804-.658 1.536-.852 2.197-.124.426-.285 1.111-.483 2.057h-1.284c.292-1.763.938-3.517 1.935-5.263.59-1.022 1.209-1.906 1.858-2.65h-5.105v-1.162h6.422z" fill="#0072ff"/><path d="m243.662 8.968v-.891c.834-.081 1.418-.218 1.748-.408.329-.191.577-.643.738-1.354h.917v9.188h-1.238v-6.535z" fill="#0072ff"/><path d="m255.756 7.033c.405.535.609 1.086.609 1.653h-1.144c-.069-.364-.179-.649-.33-.855-.278-.386-.703-.579-1.27-.579-.649 0-1.166.3-1.549.898-.382.6-.595 1.457-.639 2.573.267-.392.602-.685 1.005-.879.37-.172.782-.258 1.237-.258.773 0 1.446.247 2.022.741.574.494.862 1.231.862 2.211 0 .838-.272 1.58-.817 2.228-.546.646-1.324.97-2.333.97-.864 0-1.609-.327-2.236-.982s-.941-1.759-.941-3.31c0-1.147.14-2.12.42-2.92.537-1.529 1.519-2.294 2.946-2.294 1.033 0 1.753.268 2.158.803zm-.876 7.057c.303-.41.454-.895.454-1.453 0-.472-.136-.922-.405-1.35s-.762-.642-1.474-.642c-.497 0-.934.166-1.309.497-.375.33-.562.829-.562 1.494 0 .584.171 1.075.511 1.473.341.397.813.596 1.418.596.609 0 1.065-.205 1.367-.615z" fill="#0072ff"/><path d="m310.862 29.368v-.891c.834-.082 1.418-.218 1.748-.409.329-.19.576-.642.738-1.354h.916v9.188h-1.237v-6.534z" fill="#0072ff"/><path d="m318.69 33.671c.033.64.281 1.081.74 1.325.236.129.504.193.801.193.554 0 1.027-.231 1.418-.693.391-.463.669-1.402.832-2.818-.26.409-.578.697-.958.863-.381.165-.79.249-1.229.249-.889 0-1.594-.277-2.111-.831s-.777-1.267-.777-2.139c0-.837.256-1.573.768-2.209.513-.636 1.268-.953 2.265-.953 1.347 0 2.274.606 2.786 1.817.284.665.426 1.499.426 2.499 0 1.13-.17 2.132-.509 3.003-.563 1.452-1.519 2.178-2.864 2.178-.902 0-1.586-.236-2.055-.708s-.703-1.063-.703-1.776zm3.021-2.357c.38-.302.569-.83.569-1.585 0-.677-.171-1.182-.512-1.514s-.777-.498-1.305-.498c-.566 0-1.017.189-1.35.569-.333.379-.499.886-.499 1.521 0 .6.146 1.076.438 1.43.291.354.757.53 1.397.53.462.001.881-.151 1.262-.453z" fill="#0072ff"/><path d="m326.536 106.769v-.891c.835-.081 1.418-.217 1.748-.408.329-.19.576-.642.739-1.354h.915v9.188h-1.237v-6.534h-2.165z" fill="#d55e00"/><path d="m328.726 63.457c-.492-.599-.738-1.327-.738-2.187h1.21c.052.597.164 1.029.335 1.299.301.484.846.727 1.633.727.611 0 1.102-.163 1.472-.49.369-.326.554-.747.554-1.264 0-.636-.194-1.081-.583-1.335-.388-.253-.93-.38-1.621-.38-.077 0-.155.001-.235.002-.078.002-.159.005-.241.008v-1.022c.119.012.22.019.302.022.081.004.169.006.263.006.433 0 .788-.068 1.066-.206.487-.239.731-.668.731-1.285 0-.459-.163-.812-.488-1.062-.326-.248-.706-.372-1.14-.372-.772 0-1.306.257-1.602.771-.163.283-.256.685-.276 1.207h-1.145c0-.687.138-1.27.413-1.75.472-.858 1.302-1.287 2.491-1.287.939 0 1.668.209 2.184.628.514.419.771 1.025.771 1.819 0 .566-.152 1.026-.459 1.378-.188.219-.435.392-.736.516.486.134.867.39 1.142.771.273.381.41.847.41 1.397 0 .882-.289 1.601-.869 2.155s-1.403.833-2.468.833c-1.093-.001-1.885-.3-2.376-.899z" fill="#d55e00"/><path d="m315.312 105.745v-.354c.873.064 1.542.37 2.01.916.467.546.7 1.296.7 2.251 0 .912-.226 1.652-.674 2.222-.449.57-1.023.854-1.723.854-.418 0-.764-.134-1.039-.403-.273-.268-.489-.684-.643-1.246-.146.559-.357.974-.633 1.244s-.624.405-1.046.405c-.705 0-1.282-.282-1.729-.849-.446-.564-.67-1.308-.67-2.228 0-.955.234-1.705.701-2.251.469-.546 1.141-.852 2.018-.916v.354c-.535.029-.913.234-1.137.613-.225.378-.336 1.02-.336 1.923 0 1.071.099 1.832.297 2.278.199.447.523.671.977.671.375 0 .669-.167.882-.502.214-.337.32-.803.32-1.4 0-.307-.045-.707-.132-1.204-.088-.497-.131-.835-.131-1.016 0-.211.054-.374.16-.487.108-.114.261-.172.459-.172.202 0 .357.058.466.172.108.113.162.276.162.487 0 .193-.042.539-.127 1.036-.084.496-.126.895-.126 1.196 0 .589.106 1.051.322 1.388.214.335.507.502.876.502.443 0 .763-.22.961-.66.197-.442.297-1.164.297-2.166 0-.978-.11-1.657-.331-2.04-.218-.381-.596-.589-1.131-.618z" fill="#d55e00"/></svg>