<svg height="30.72188mm" viewBox="0 0 369 116" width="97.727341mm" xmlns="http://www.w3.org/2000/svg"><g stroke-linecap="round"><g stroke="#000"><path d="m289.87 57.779999h18.13"/><path d="m197.35001 34.889999h-26.43"/><path d="m237 12 13.22 22.889999"/><path d="m78.399994 12h-26.429993"/><path d="m75.096252 18h-19.822509"/><path d="m157.7 57.779999 13.22001 22.889999"/><path d="m51.970001 12-13.220001 22.889999"/><path d="m250.22 34.889999h26.42999"/><path d="m170.92001 80.669998-13.22001 22.890002"/><path d="m118.05 80.669998 13.22-22.889999"/><path d="m38.75 34.889999h-26.43"/><path d="m237 12h-26.42999"/><path d="m233.69626 18h-19.82251"/><path d="m91.619995 34.889999-13.220001-22.889999"/><path d="m131.27 57.779999-13.22-22.89"/><path d="m124.42178 57.91951-9.91499-17.167503"/><path d="m131.27 103.56-13.22-22.890002"/><path d="m170.92001 34.889999-13.22001 22.89"/><path d="m174.46323 40.752007-9.91501 17.167503"/><path d="m157.7 103.56h-26.43"/><path d="m154.39626 97.559998h-19.82251"/><path d="m118.05 34.889999h-26.430005"/><path d="m210.57001 12-13.22 22.889999"/><path d="m276.64999 34.889999 13.22001 22.89"/></g><path d="m318.11835 57.01535 1.4209.358887c-.29787 1.166994-.83375 2.056886-1.60767 2.669678-.77393.612793-1.71998.919189-2.83814.919189-1.15723 0-2.09839-.235595-2.82348-.706787-.7251-.47119-1.27686-1.153563-1.65527-2.047119-.37842-.893551-.56763-1.853023-.56763-2.878418 0-1.118157.21362-2.093498.64087-2.926025.42724-.832511 1.03515-1.464834 1.82373-1.896973.78857-.432118 1.65649-.648182 2.60376-.648193 1.07421.000011 1.97753.273448 2.70996.820312.73241.546885 1.24266 1.315927 1.53076 2.307129l-1.39893.32959c-.24903-.781242-.61036-1.350089-1.08398-1.706543-.47364-.356436-1.06934-.534658-1.78711-.534668-.8252.00001-1.5149.197763-2.06909.593262-.5542.395516-.94361.926522-1.16821 1.593017-.22462.666511-.33692 1.353766-.33692 2.061768 0 .91309.13306 1.710209.39917 2.391357.26611.681155.67993 1.190188 1.24146 1.5271.56152.336915 1.16943.505372 1.82373.505371.79589.000001 1.46972-.229491 2.02148-.688477.55175-.458982.92529-1.140133 1.12061-2.043457zm2.74658-1.464843c0-1.78222.47851-3.177482 1.43555-4.185791.95702-1.008291 2.19237-1.512441 3.70605-1.512452.9912.000011 1.88476.236828 2.68066.71045.79589.473642 1.40258 1.134042 1.82007 1.981201.41747.847175.62621 1.807868.62622 2.88208-.00001 1.088871-.21973 2.062991-.65918 2.922363-.43946.859377-1.06202 1.510011-1.86767 1.951904-.80567.441895-1.67481.662842-2.60742.662842-1.01075 0-1.91407-.24414-2.70996-.732422-.79591-.48828-1.39893-1.154783-1.80909-1.999511-.41015-.844724-.61523-1.738277-.61523-2.680664zm1.46484.021972c0 1.293949.3479 2.313236 1.0437 3.057862.6958.74463 1.5686 1.116944 2.61841 1.116943 1.06933.000001 1.94946-.375975 2.64038-1.12793.69091-.75195 1.03637-1.818843 1.03638-3.200683-.00001-.874018-.14771-1.636956-.44312-2.288819-.29541-.651847-.72754-1.157217-1.29638-1.516113-.56886-.358877-1.20728-.53832-1.91529-.53833-1.00586.00001-1.87134.345468-2.59643 1.036377-.7251.690926-1.08765 1.844489-1.08765 3.460693zm10.19532-.021972c-.00001-1.78222.47851-3.177482 1.43554-4.185791.95703-1.008291 2.19238-1.512441 3.70606-1.512452.9912.000011 1.88475.236828 2.68066.71045.79589.473642 1.40258 1.134042 1.82007 1.981201.41747.847175.62621 1.807868.62622 2.88208-.00001 1.088871-.21974 2.062991-.65918 2.922363-.43946.859377-1.06202 1.510011-1.86768 1.951904-.80567.441895-1.67481.662842-2.60742.662842-1.01074 0-1.91406-.24414-2.70996-.732422-.7959-.48828-1.39893-1.154783-1.80908-1.999511-.41016-.844724-.61524-1.738277-.61523-2.680664zm1.46484.021972c0 1.293949.3479 2.313236 1.0437 3.057862.6958.74463 1.5686 1.116944 2.61841 1.116943 1.06933.000001 1.94945-.375975 2.64038-1.12793.69091-.75195 1.03637-1.818843 1.03638-3.200683-.00001-.874018-.14772-1.636956-.44312-2.288819-.29542-.651847-.72755-1.157217-1.29639-1.516113-.56885-.358877-1.20728-.53832-1.91528-.53833-1.00586.00001-1.87134.345468-2.59643 1.036377-.7251.690926-1.08765 1.844489-1.08765 3.460693zm10.67139 5.20752v-10.737305h1.42089v4.40918h5.58106v-4.40918h1.4209v10.737305h-1.4209v-5.061035h-5.58106v5.061035z"/></g></svg>