<svg viewBox="0 0 859.5 476.5" xmlns="http://www.w3.org/2000/svg"><g transform="matrix(1.25 0 0 -1.25 -6.13 480.2)"><path d="m363.6 155.7-.9-.5-.8.7v39.5l1.7-1"/><path d="m397.1 136.3v-.9l-1.2-.4-33.2 19.3v.9l.9.5"/><path d="m430.6 155.7.9-.5v-1l-33.2-19.2-1.2.4v.9"/><path d="m430.6 194.4.9.5.8-.5v-38.7l-.8-.5-.9.5"/><path d="m397.1 213.7v2l33.4-19.3 1-1.5-.9-.5"/><path d="m363.6 194.4-1.7 1 35.2 20.3v-2"/><path d="m465.8 136.3v-1.9l-34.3 19.8v1l.8.5"/><path d="m499.4 155.7 1.7-1-35.3-20.3v1.9"/><path d="m499.4 194.4.8.5.9-.5v-39.7l-1.7 1"/><path d="m465.8 213.7v1l.9.5 32.5-18.8 1-1.5-.8-.5"/><path d="m432.3 194.4-.8.5.9 1.5 32.6 18.8.8-.5v-1"/><path d="m533.7 215.2.9-.5v-1l-33.5-19.3-.9.5 1 1.5"/><path d="m533.7 253.9.9.5.8-.5v-38.7l-.8-.5-.9.5"/><path d="m500.2 273.3v1.9l34.4-19.8v-1l-.9-.5"/><path d="m499.8 266.6.8 1.5 28.5-16.4-.9-1.5"/><path d="m466.7 253.9-1.7 1 35.2 20.3v-1.9"/><path d="m466.7 215.2-.9-.5-.8.5v39.7l1.7-1"/><path d="m568.9 195.9v-2l-34.3 19.8v1l.8.5"/><path d="m602.5 215.2 1.7-1-35.3-20.3v2"/><path d="m602.5 253.9.8.5.9-1.6v-38.6l-1.7 1"/><path d="m568.9 273.3v1l.9.4 33.5-19.3v-1l-.8-.5"/><path d="m535.4 253.9-.8.5v1l32.5 18.8 1.8.1v-1"/><path d="m636.8 274.7 1.7-.9-33.4-19.3-1.8-.1v1"/><path d="m636.8 313.4 1.7 1v-40.6l-1.7.9"/><path d="m603.3 332.8v1l1.3.2 33.9-19.6-1.7-1"/><path d="m569.8 313.4-1.7 1 34.6 20 .6-.6v-1"/><path d="m569.8 274.7-.9-.4-.8 1.6v38.5l1.7-1"/><path d="m423.4-273.2c0-2.8.7-5.1 2.3-6.7 1.5-1.6 3.5-2.4 5.9-2.4 1.6 0 3 .4 4.3 1.2 1.2.7 2.2 1.8 2.9 3.1.7 1.4 1 2.9 1 4.6 0 1.8-.4 3.3-1.1 4.7s-1.7 2.4-3 3.1c-1.2.7-2.6 1.1-4.1 1.1-1.6 0-3.1-.4-4.4-1.2-1.2-.8-2.2-1.8-2.9-3.2-.6-1.3-.9-2.8-.9-4.3zm2.3.1c0 2 .6 3.7 1.7 4.9s2.5 1.7 4.2 1.7 3.1-.6 4.2-1.8 1.6-2.9 1.6-5.1c0-1.4-.2-2.6-.7-3.6-.4-1.1-1.1-1.9-2-2.5-.9-.5-2-.8-3.1-.8-1.6 0-3 .5-4.2 1.6-1.1 1.1-1.7 3-1.7 5.6z" transform="scale(1 -1)"/><path d="m439.4 265.3.8 1.4 26.1-15-.9-1.5"/><path d="m442.3 270.4.9 1.5 26-15-.8-1.5"/><path d="m427.6 234.6h7.7l-2.9-38.2-.9-1.5-1 1.5"/><path d="m496.4 234.6h7.6l-2.8-38.2-1-1.5-1 1.5"/><path d="m639.6 237.9-3.8-6.6-31.6 21.5-.9 1.6 1.8.1"/><path d="m527.8-284.6v-17.2h2.3v7.1h8.9v-7.1h2.3v17.2h-2.3v-8.1h-8.9v8.1z" transform="scale(1 -1)"/><path d="m543.7 284.4 3.8 6.6 20.6-15.1.8-1.6-1.8-.1"/><path d="m538.4 175h-7.6l.1 1.7h7.4"/><path d="m538 179.9h-6.8l.1 1.7h6.6"/><path d="m537.6 184.7h-6l.1 1.7h5.8"/><path d="m537.2 189.5h-5.2l.1 1.7h4.9"/><path d="m536.8 194.3h-4.4l.1 1.7h4.1"/><path d="m536.4 199.1h-3.6l.1 1.7h3.3"/><path d="m536 203.9h-2.8l.1 1.7h2.5"/><path d="m535.6 208.8h-2l.1 1.7h1.7"/><path d="m424.7-106v-17.2h2.3v7.1h8.9v-7.1h2.3v17.2h-2.3v-8.1h-8.9v8.1z" transform="scale(1 -1)"/><path d="m435.3 125.5h-7.7l.2 1.7h7.3"/><path d="m434.7 130.3h-6.5l.2 1.7h6.1"/><path d="m434.2 135h-5.4l.2 1.7h5"/><path d="m433.6 139.8h-4.3l.2 1.7h3.9"/><path d="m433.1 144.5h-3.2l.2 1.7h2.8"/><path d="m432.5 149.2h-2.1l.2 1.7h1.7"/><path d="m417.7 101.4-1.5-.9-19.1 33.2v1.7l1.2-.4"/><path d="m378 100.5-1.5.9 19.4 33.6 1.2.4v-1.7"/><path d="m580.2 366.2 6.6 3.9.7-1.6-6.4-3.7"/><path d="m582.9 362.3 5.9 3.4.8-1.6-5.7-3.2"/><path d="m585.7 358.3 5.2 3 .7-1.5-4.9-2.9"/><path d="m588.4 354.3 4.6 2.6.7-1.5-4.3-2.5"/><path d="m591.2 350.4 3.8 2.2.7-1.6-3.5-2"/><path d="m594 346.4 3.1 1.8.7-1.6-2.9-1.6"/><path d="m596.7 342.4 2.4 1.4.8-1.5-2.2-1.3"/><path d="m599.5 338.4 1.7 1 .7-1.5-1.4-.9"/><g transform="scale(1 -1)"><path d="m628.5-364.7 2.3.6c-.5 1.8-1.4 3.2-2.6 4.2s-2.7 1.5-4.5 1.5c-1.9 0-3.4-.4-4.5-1.1-1.2-.8-2.1-1.9-2.7-3.3s-.9-3-.9-4.6c0-1.8.3-3.4 1-4.7s1.7-2.3 2.9-3c1.3-.7 2.7-1.1 4.2-1.1 1.7 0 3.2.5 4.3 1.3 1.2.9 2 2.1 2.5 3.7l-2.2.6c-.4-1.3-1-2.2-1.8-2.8-.7-.5-1.7-.8-2.8-.8-1.4 0-2.5.3-3.4.9-.8.7-1.5 1.5-1.8 2.6-.4 1-.6 2.1-.6 3.3 0 1.4.3 2.7.7 3.8s1.1 1.9 2 2.4c.9.6 1.8.8 2.9.8 1.3 0 2.3-.3 3.2-1.1.9-.7 1.5-1.8 1.8-3.2z"/><path d="m632.9-367.1c0-2.8.8-5.1 2.3-6.7s3.5-2.4 5.9-2.4c1.6 0 3 .4 4.3 1.2 1.3.7 2.2 1.8 2.9 3.1.7 1.4 1 2.9 1 4.6 0 1.8-.3 3.3-1 4.7s-1.7 2.4-3 3.1-2.7 1.1-4.2 1.1c-1.6 0-3.1-.4-4.3-1.2-1.3-.8-2.3-1.8-2.9-3.2-.7-1.3-1-2.8-1-4.3zm2.3.1c0 2 .6 3.7 1.7 4.9s2.5 1.7 4.2 1.7 3.1-.6 4.2-1.8 1.7-2.9 1.7-5.1c0-1.4-.3-2.6-.7-3.6-.5-1.1-1.2-1.9-2.1-2.5-.9-.5-1.9-.8-3.1-.8-1.6 0-3 .5-4.1 1.6-1.2 1.1-1.8 3-1.8 5.6z"/><path d="m651.6-367.1c0-2.8.7-5.1 2.3-6.7 1.5-1.6 3.5-2.4 5.9-2.4 1.6 0 3 .4 4.3 1.2 1.2.7 2.2 1.8 2.9 3.1.7 1.4 1 2.9 1 4.6 0 1.8-.4 3.3-1.1 4.7s-1.7 2.4-3 3.1c-1.2.7-2.6 1.1-4.1 1.1-1.6 0-3.1-.4-4.4-1.2-1.2-.8-2.2-1.8-2.9-3.2-.6-1.3-.9-2.8-.9-4.3zm2.3.1c0 2 .6 3.7 1.7 4.9s2.5 1.7 4.2 1.7 3.1-.6 4.2-1.8 1.6-2.9 1.6-5.1c0-1.4-.2-2.6-.7-3.6-.4-1.1-1.1-1.9-2-2.5-.9-.5-2-.8-3.1-.8-1.6 0-3 .5-4.2 1.6-1.1 1.1-1.7 3-1.7 5.6z"/><path d="m671-358.7v-17.2h2.3v7.1h8.9v-7.1h2.3v17.2h-2.3v-8.1h-8.9v8.1z"/></g><path d="m614 360 6.6-3.9-16-22.1-1.3-.2-.6.6"/><path d="m335.5 143.9-2 7.4 28.4 4.6.8-.7v-.9"/><path d="m253.2-173.9c0-2.8.7-5.1 2.3-6.7 1.5-1.6 3.5-2.4 5.9-2.4 1.6 0 3 .4 4.3 1.2 1.2.7 2.2 1.8 2.9 3.1.7 1.4 1 2.9 1 4.6 0 1.8-.4 3.3-1.1 4.7s-1.7 2.4-3 3.1c-1.2.7-2.6 1.1-4.1 1.1-1.6 0-3.1-.4-4.4-1.2-1.2-.8-2.2-1.8-2.9-3.2-.6-1.3-.9-2.8-.9-4.3zm2.3.1c0 2 .6 3.7 1.7 4.9s2.5 1.7 4.2 1.7 3.1-.6 4.2-1.8 1.6-2.9 1.6-5.1c0-1.4-.2-2.6-.7-3.6-.4-1.1-1.1-1.9-2-2.5-.9-.5-2-.8-3.1-.8-1.6 0-3 .5-4.2 1.6-1.1 1.1-1.7 3-1.7 5.6z" transform="scale(1 -1)"/><path d="m290.4 126.2-.4-1.1-1.8 1.5-21.7 37.7 1.5.8"/><path d="m237.8 136.3-3.1 4.6 2.3 3.3 51.2-17.6 1.8-1.5.2-.9"/><path d="m181.4 128.4-2.4-3.3-5.4 2.1-23.6 46.8.4 1 2-1.5"/><path d="m204 160.4 1.8-1.4v-.9l-53.4 15.4-2 1.5v.9"/><path d="m205.8 158.1v.9l.4 1 44.5 12.8.5-1.6"/><g transform="scale(1 -1)"><path d="m87.32-155.3v-17.2h2.28v7.1h8.93v-7.1h2.27v17.2h-2.27v-8.1h-8.93v8.1z"/><path d="m103.9-163.7c0-2.8.8-5.1 2.3-6.7s3.5-2.4 5.9-2.4c1.6 0 3 .4 4.3 1.2 1.3.7 2.2 1.8 2.9 3.1.7 1.4 1 2.9 1 4.6 0 1.8-.3 3.3-1 4.7s-1.7 2.4-3 3.1-2.7 1.1-4.2 1.1c-1.6 0-3.1-.4-4.3-1.2-1.3-.8-2.3-1.8-2.9-3.2-.7-1.3-1-2.8-1-4.3zm2.3.1c0 2 .6 3.7 1.7 4.9s2.5 1.7 4.2 1.7 3.1-.6 4.2-1.8 1.7-2.9 1.7-5.1c0-1.4-.3-2.6-.7-3.6-.5-1.1-1.2-1.9-2.1-2.5-.9-.5-1.9-.8-3.1-.8-1.6 0-3 .5-4.1 1.6-1.2 1.1-1.8 3-1.8 5.6z"/></g><path d="m122.3 166.6-.4 1.6 28.5 7.7v-.9l-.4-1"/><g transform="scale(1 -1)"><path d="m115.5-124.3v-17.2h2.3v7.1h8.9v-7.1h2.3v17.2h-2.3v-8.1h-8.9v8.1z"/><path d="m132.1-132.7c0-2.8.8-5.1 2.3-6.7s3.5-2.4 5.9-2.4c1.6 0 3 .4 4.3 1.2 1.3.7 2.2 1.8 2.9 3.1.7 1.4 1 2.9 1 4.6 0 1.8-.3 3.3-1 4.7s-1.7 2.4-3 3.1-2.7 1.1-4.2 1.1c-1.6 0-3.1-.4-4.3-1.2-1.3-.8-2.3-1.8-2.9-3.2-.7-1.3-1-2.8-1-4.3zm2.3.1c0 2 .6 3.7 1.7 4.9s2.5 1.7 4.2 1.7 3.1-.6 4.2-1.8 1.7-2.9 1.7-5.1c0-1.4-.3-2.6-.7-3.6-.5-1.1-1.2-1.9-2.1-2.5-.9-.5-1.9-.8-3.1-.8-1.6 0-3 .5-4.1 1.6-1.2 1.1-1.8 3-1.8 5.6z"/></g><path d="m173.6 127.2 5.4-2.1 3.5-1.7-31.9 7.2.4 1.7"/><path d="m249.1-90.46c0-2.85.7-5.08 2.3-6.69 1.5-1.62 3.5-2.42 5.9-2.42 1.6 0 3 .37 4.3 1.13 1.2.76 2.2 1.82 2.9 3.17.7 1.36 1 2.89 1 4.61 0 1.75-.4 3.3-1.1 4.68-.7 1.37-1.7 2.42-3 3.12-1.2.71-2.6 1.06-4.1 1.06-1.6 0-3.1-.39-4.4-1.17-1.2-.78-2.2-1.85-2.9-3.2-.6-1.35-.9-2.78-.9-4.29zm2.3 0c0 2.07.6 3.7 1.7 4.89s2.5 1.79 4.2 1.79 3.1-.6 4.2-1.81c1.1-1.2 1.6-2.91 1.6-5.12 0-1.4-.2-2.62-.7-3.66-.4-1.04-1.1-1.85-2-2.43-.9-.57-2-.86-3.1-.86-1.6 0-3 .56-4.2 1.66-1.1 1.11-1.7 2.95-1.7 5.54z" transform="scale(1 -1)"/><path d="m235 138.3-.3 2.6 3.1-4.6 15.9-35-1.6-.7"/><g transform="scale(1 -1)"><path d="m124.5-183.9v-17.2h2.3v7.1h8.9v-7.1h2.3v17.2h-2.3v-8.1h-8.9v8.1z"/><path d="m141.1-192.3c0-2.8.8-5.1 2.3-6.7s3.5-2.4 5.9-2.4c1.6 0 3 .4 4.3 1.2 1.3.7 2.2 1.8 2.9 3.1.7 1.4 1 2.9 1 4.6 0 1.8-.3 3.3-1 4.7s-1.7 2.4-3 3.1-2.7 1.1-4.2 1.1c-1.6 0-3.1-.4-4.3-1.2-1.3-.8-2.3-1.8-2.9-3.2-.7-1.3-1-2.8-1-4.3zm2.3.1c0 2 .6 3.7 1.7 4.9s2.5 1.7 4.2 1.7 3.1-.6 4.2-1.8 1.7-2.9 1.7-5.1c0-1.4-.3-2.6-.7-3.6-.5-1.1-1.2-1.9-2.1-2.5-.9-.5-1.9-.8-3.1-.8-1.6 0-3 .5-4.1 1.6-1.2 1.1-1.8 3-1.8 5.6z"/><path d="m159.8-192.3c0-2.8.7-5.1 2.3-6.7 1.5-1.6 3.5-2.4 5.9-2.4 1.6 0 3 .4 4.3 1.2 1.2.7 2.2 1.8 2.9 3.1.7 1.4 1 2.9 1 4.6 0 1.8-.4 3.3-1.1 4.7s-1.7 2.4-3 3.1c-1.2.7-2.6 1.1-4.1 1.1-1.6 0-3.1-.4-4.4-1.2-1.2-.8-2.2-1.8-2.9-3.2-.6-1.3-.9-2.8-.9-4.3zm2.3.1c0 2 .6 3.7 1.7 4.9s2.5 1.7 4.2 1.7 3.1-.6 4.2-1.8 1.6-2.9 1.6-5.1c0-1.4-.2-2.6-.7-3.6-.4-1.1-1.1-1.9-2-2.5-.9-.5-2-.8-3.1-.8-1.6 0-3 .5-4.2 1.6-1.1 1.1-1.7 3-1.7 5.6z"/><path d="m191.4-189.9 2.3.6c-.5 1.8-1.4 3.2-2.6 4.2-1.3 1-2.8 1.5-4.6 1.5s-3.3-.4-4.5-1.1c-1.1-.8-2-1.9-2.6-3.3s-.9-3-.9-4.6c0-1.8.3-3.4 1-4.7s1.6-2.3 2.9-3 2.7-1.1 4.2-1.1c1.7 0 3.1.5 4.3 1.3 1.2.9 2 2.1 2.5 3.7l-2.3.6c-.4-1.3-1-2.2-1.7-2.8-.8-.5-1.7-.8-2.9-.8-1.3 0-2.4.3-3.3.9-.9.7-1.5 1.5-1.8 2.6-.4 1-.6 2.1-.6 3.3 0 1.4.2 2.7.6 3.8.5 1.1 1.1 1.9 2 2.4.9.6 1.9.8 3 .8 1.2 0 2.3-.3 3.2-1.1.9-.7 1.5-1.8 1.8-3.2z"/></g><path d="m191.2 182.5 1.5.9 13.5-23.4-.4-1-1.8 1.4"/><path d="m182.5 123.4-3.5 1.7 2.4 3.3 55.6 15.8-2.3-3.3.3-2.6"/><path d="m178.8-88.06c0-2.85.7-5.08 2.3-6.69 1.5-1.62 3.5-2.42 5.9-2.42 1.6 0 3 .37 4.3 1.13 1.2.76 2.2 1.82 2.9 3.17.7 1.36 1 2.89 1 4.61 0 1.75-.4 3.3-1.1 4.68-.7 1.37-1.7 2.42-3 3.12-1.2.71-2.6 1.06-4.1 1.06-1.6 0-3.1-.39-4.4-1.17-1.2-.78-2.2-1.85-2.9-3.2-.6-1.35-.9-2.78-.9-4.29zm2.3 0c0 2.07.6 3.7 1.7 4.89s2.5 1.79 4.2 1.79 3.1-.6 4.2-1.81c1.1-1.2 1.6-2.91 1.6-5.12 0-1.4-.2-2.62-.7-3.66-.4-1.04-1.1-1.85-2-2.43-.9-.57-2-.86-3.1-.86-1.6 0-3 .56-4.2 1.66-1.1 1.11-1.7 2.95-1.7 5.54z" transform="scale(1 -1)"/><path d="m215.8 40.74-.2-1.5-1.8 1.55-21.7 37.65 1.5.85"/><path d="m164.1 50.29-3.8 4.8 2.3 3.25 51.2-17.55 1.8-1.55.4-.95"/><path d="m107 42.59-2.4-3.35-5.38 2.1-23.65 46.8.45 1 1.95-1.45"/><path d="m129.6 74.59 1.8-1.4v-.9l-53.43 15.4-1.95 1.45v.9"/><path d="m131.4 72.29v.9l.4 1 44.5 12.8.5-1.65"/><g transform="scale(1 -1)"><path d="m12.92-69.44v-17.18h2.28v7.05h8.92v-7.05h2.28v17.18h-2.28v-8.1h-8.92v8.1z"/><path d="m29.49-77.81c0-2.85.76-5.08 2.3-6.69 1.53-1.62 3.5-2.42 5.92-2.42 1.59 0 3.02.37 4.29 1.13 1.28.76 2.25 1.82 2.92 3.17.66 1.36 1 2.89 1 4.61 0 1.75-.35 3.3-1.06 4.68-.7 1.37-1.7 2.42-2.99 3.12-1.28.71-2.67 1.06-4.17 1.06-1.61 0-3.06-.39-4.33-1.17-1.28-.78-2.24-1.85-2.9-3.2-.65-1.35-.98-2.78-.98-4.29zm2.34 0c0 2.07.56 3.7 1.67 4.89 1.12 1.19 2.51 1.79 4.19 1.79 1.71 0 3.12-.6 4.23-1.81 1.1-1.2 1.65-2.91 1.65-5.12 0-1.4-.23-2.62-.7-3.66-.48-1.04-1.17-1.85-2.08-2.43-.91-.57-1.93-.86-3.06-.86-1.61 0-3 .56-4.16 1.66-1.16 1.11-1.74 2.95-1.74 5.54z"/></g><path d="m47.92 80.74-.45 1.65 28.55 7.65v-.9l-.45-1"/><g transform="scale(1 -1)"><path d="m41.17-38.54v-17.18h2.28v7.05h8.93v-7.05h2.27v17.18h-2.27v-8.1h-8.93v8.1z"/><path d="m57.74-46.91c0-2.85.76-5.08 2.3-6.69 1.53-1.62 3.5-2.42 5.92-2.42 1.59 0 3.02.37 4.29 1.13 1.28.76 2.25 1.82 2.92 3.17.66 1.36 1 2.89 1 4.61 0 1.75-.35 3.3-1.06 4.68-.7 1.37-1.7 2.42-2.99 3.12-1.28.71-2.67 1.06-4.17 1.06-1.61 0-3.06-.39-4.33-1.17-1.28-.78-2.24-1.85-2.9-3.2-.65-1.35-.98-2.78-.98-4.29zm2.34 0c0 2.07.56 3.7 1.67 4.89 1.12 1.19 2.51 1.79 4.19 1.79 1.71 0 3.12-.6 4.23-1.81 1.1-1.2 1.65-2.91 1.65-5.12 0-1.4-.23-2.62-.7-3.66-.48-1.04-1.17-1.85-2.08-2.43-.91-.57-1.93-.86-3.06-.86-1.61 0-3 .56-4.16 1.66-1.16 1.11-1.74 2.95-1.74 5.54z"/></g><path d="m99.22 41.34 5.38-2.1 3.5-1.65-31.88 7.2.4 1.65"/><g transform="scale(1 -1)"><path d="m172.1-19.61c0-2.85.7-5.08 2.3-6.69 1.5-1.62 3.5-2.42 5.9-2.42 1.6 0 3 .37 4.3 1.13 1.2.76 2.2 1.82 2.9 3.17.7 1.36 1 2.89 1 4.61 0 1.75-.4 3.3-1.1 4.68-.7 1.37-1.7 2.42-3 3.12-1.2.71-2.6 1.06-4.1 1.06-1.6 0-3.1-.39-4.4-1.17-1.2-.78-2.2-1.85-2.9-3.2-.6-1.35-.9-2.78-.9-4.29zm2.3 0c0 2.07.6 3.7 1.7 4.89s2.5 1.79 4.2 1.79 3.1-.6 4.2-1.81c1.1-1.2 1.6-2.91 1.6-5.12 0-1.4-.2-2.62-.7-3.66-.4-1.04-1.1-1.85-2-2.43-.9-.57-2-.86-3.1-.86-1.6 0-3 .56-4.2 1.66-1.1 1.11-1.7 2.95-1.7 5.54z"/><path d="m191.5-11.24v-17.18h2.3v7.06h8.9v-7.06h2.3v17.18h-2.3v-8.1h-8.9v8.1z"/></g><path d="m160.8 52.54-.5 2.55 3.8-4.8 11.6-20.15-1.4-.85"/><g transform="scale(1 -1)"><path d="m50.1-98.09v-17.21h2.28v7.1h8.93v-7.1h2.27v17.21h-2.27v-8.11h-8.93v8.11z"/><path d="m66.67-106.5c0-2.8.76-5 2.3-6.7 1.53-1.6 3.5-2.4 5.92-2.4 1.59 0 3.02.4 4.29 1.2 1.28.7 2.25 1.8 2.92 3.1.66 1.4 1 2.9 1 4.6 0 1.8-.35 3.3-1.06 4.7-.7 1.4-1.7 2.44-2.99 3.14-1.28.71-2.67 1.06-4.17 1.06-1.61 0-3.06-.39-4.33-1.17-1.28-.78-2.24-1.83-2.9-3.23-.65-1.3-.98-2.7-.98-4.3zm2.34.1c0 2 .56 3.7 1.67 4.9 1.12 1.2 2.51 1.76 4.19 1.76 1.71 0 3.12-.56 4.23-1.76 1.1-1.3 1.65-3 1.65-5.2 0-1.4-.23-2.6-.7-3.6-.48-1.1-1.17-1.9-2.08-2.5-.91-.5-1.93-.8-3.06-.8-1.61 0-3 .5-4.16 1.6s-1.74 3-1.74 5.6z"/><path d="m85.34-106.5c0-2.8.77-5 2.3-6.7 1.53-1.6 3.5-2.4 5.93-2.4 1.58 0 3.01.4 4.29 1.2 1.27.7 2.24 1.8 2.94 3.1.6 1.4 1 2.9 1 4.6 0 1.8-.4 3.3-1.1 4.7s-1.68 2.44-2.97 3.14c-1.29.71-2.68 1.06-4.17 1.06-1.62 0-3.07-.39-4.34-1.17s-2.24-1.83-2.9-3.23c-.65-1.3-.98-2.7-.98-4.3zm2.34.1c0 2 .56 3.7 1.67 4.9 1.12 1.2 2.51 1.76 4.19 1.76 1.71 0 3.12-.56 4.23-1.76 1.1-1.3 1.66-3 1.66-5.2 0-1.4-.24-2.6-.71-3.6-.48-1.1-1.17-1.9-2.08-2.5-.91-.5-1.93-.8-3.06-.8-1.61 0-3 .5-4.16 1.6s-1.74 3-1.74 5.6z"/><path d="m117-104.1 2.2.6c-.4 1.8-1.3 3.3-2.5 4.23-1.3.98-2.8 1.47-4.6 1.47s-3.3-.37-4.5-1.13c-1.2-.75-2-1.87-2.6-3.27s-1-3-1-4.6c0-1.8.4-3.4 1.1-4.7s1.6-2.3 2.9-3 2.6-1.1 4.2-1.1c1.7 0 3.1.5 4.3 1.3 1.2.9 2 2.2 2.4 3.7l-2.2.6c-.4-1.3-1-2.2-1.7-2.8-.8-.5-1.7-.8-2.9-.8-1.3 0-2.4.3-3.3.9-.9.7-1.5 1.5-1.9 2.6-.3 1-.5 2.1-.5 3.3 0 1.4.2 2.7.6 3.8.5 1.1 1.1 1.9 2 2.4.9.6 1.9.86 2.9.86 1.3 0 2.4-.36 3.3-1.06.9-.8 1.4-1.9 1.8-3.3z"/></g><path d="m116.8 96.69 1.5.85 13.5-23.35-.4-1-1.8 1.4"/><path d="m108.1 37.59-3.5 1.65 2.4 3.35 55.6 15.75-2.3-3.25.5-2.55"/><path d="m249.3 82.94 1.3-1.1-34.6-43.55-.4.95.2 1.5"/><path d="m459.1-165.6v-17.2h2.3v7.1h8.9v-7.1h2.3v17.2h-2.3v-8.1h-8.9v8.1z" transform="scale(1 -1)"/><path d="m469.7 185h-7.7l.2 1.7h7.3"/><path d="m469.1 189.8h-6.5l.2 1.7h6.1"/><path d="m468.6 194.5h-5.5l.2 1.7h5.1"/><path d="m468 199.3h-4.3l.2 1.7h3.9"/><path d="m467.4 204h-3.2l.2 1.7h2.8"/><path d="m466.9 208.8h-2.1l.2 1.7h1.7"/><path d="m316.3-143.9c0-2.8.7-5.1 2.3-6.7 1.5-1.6 3.5-2.4 5.9-2.4 1.6 0 3 .4 4.3 1.2 1.2.7 2.2 1.8 2.9 3.1.7 1.4 1 2.9 1 4.6 0 1.8-.4 3.3-1.1 4.7s-1.7 2.4-3 3.1c-1.2.7-2.6 1.1-4.1 1.1-1.6 0-3.1-.4-4.4-1.2-1.2-.8-2.2-1.8-2.9-3.2-.6-1.3-.9-2.8-.9-4.3zm2.3.1c0 2 .6 3.7 1.7 4.9s2.5 1.7 4.2 1.7 3.1-.6 4.2-1.8 1.6-2.9 1.6-5.1c0-1.4-.2-2.6-.7-3.6-.4-1.1-1.1-1.9-2-2.5-.9-.5-2-.8-3.1-.8-1.6 0-3 .5-4.2 1.6-1.1 1.1-1.7 3-1.7 5.6z" transform="scale(1 -1)"/><path d="m314.3 140.1.9-1.5-25-14.4-.2.9.4 1.1"/></g></svg>