<svg enable-background="new 0 0 204.752 121.185" height="121.185" viewBox="0 0 204.752 121.185" width="204.752" xmlns="http://www.w3.org/2000/svg"><path d="m78.2156 49.280375v-1.85345l32.68 18.81v.95l-.855.4275z"/><path d="m111.7506 67.614425-.855-.4275v-.95l32.6325-18.81v1.85345z"/><g transform="matrix(.95 0 0 .95 5.1188 3.029625)"><path d="m171.85 68.619c0-2.853.766-5.085 2.298-6.698 1.532-1.614 3.51-2.421 5.933-2.421 1.587 0 3.017.379 4.291 1.137 1.274.759 2.245 1.815 2.913 3.171.669 1.355 1.003 2.894 1.003 4.612 0 1.743-.352 3.302-1.056 4.677-.703 1.375-1.699 2.417-2.989 3.124s-2.681 1.061-4.174 1.061c-1.618 0-3.064-.391-4.338-1.172s-2.239-1.849-2.896-3.2c-.657-1.352-.985-2.782-.985-4.291zm2.344.029c0 2.07.557 3.701 1.671 4.893s2.512 1.787 4.192 1.787c1.712 0 3.121-.602 4.228-1.805 1.105-1.203 1.659-2.91 1.659-5.121 0-1.398-.236-2.619-.71-3.662-.473-1.043-1.164-1.852-2.075-2.426s-1.933-.861-3.066-.861c-1.61 0-2.996.553-4.157 1.658s-1.742 2.952-1.742 5.537z"/><path d="m191.299 76.984v-17.187h2.281v7.063h8.891v-7.063h2.281v17.188h-2.281v-8.094h-8.891v8.094h-2.281z"/></g><path d="m143.5281 49.280375v-1.85345l24.4625 14.10845-.8075 1.425z"/><path d="m137.451 9.119c0-2.853.766-5.085 2.297-6.698 1.533-1.614 3.509-2.421 5.933-2.421 1.586 0 3.017.379 4.291 1.137 1.273.759 2.244 1.815 2.913 3.171s1.003 2.894 1.003 4.612c0 1.743-.352 3.302-1.056 4.677s-1.7 2.417-2.989 3.124c-1.291.707-2.682 1.061-4.174 1.061-1.619 0-3.064-.391-4.338-1.172-1.275-.781-2.24-1.849-2.896-3.2s-.984-2.782-.984-4.291zm2.343.029c0 2.07.557 3.701 1.67 4.893 1.115 1.191 2.512 1.787 4.193 1.787 1.711 0 3.121-.602 4.227-1.805s1.66-2.91 1.66-5.121c0-1.398-.236-2.619-.71-3.662s-1.165-1.852-2.075-2.426c-.911-.574-1.934-.861-3.066-.861-1.611 0-2.996.553-4.158 1.658-1.16 1.106-1.741 2.952-1.741 5.537z" transform="matrix(.95 0 0 .95 5.1188 3.029625)"/><path d="m139.87059 22.062875h1.615v27.929999h-1.615z"/><path d="m145.57059 22.062875h1.615v27.929999h-1.615z"/><g transform="matrix(.95 0 0 .95 5.1188 3.029625)"><path d="m104.522 116.685v-17.188h2.34l9.004 13.489v-13.489h2.188v17.188h-2.34l-9.004-13.489v13.489z"/><path d="m121.963 116.685v-17.188h2.281v7.063h8.891v-7.063h2.281v17.188h-2.281v-8.094h-8.891v8.094z"/></g><path d="m146.199 119.669v1.516h-8.531c-.012-.381.049-.747.186-1.099.218-.58.566-1.151 1.048-1.713.48-.562 1.171-1.211 2.069-1.947 1.396-1.153 2.343-2.064 2.84-2.734.498-.67.748-1.305.748-1.903 0-.626-.226-1.153-.676-1.584-.45-.43-1.037-.645-1.76-.645-.766 0-1.377.229-1.836.688s-.691 1.094-.697 1.905l-1.625-.172c.111-1.216.531-2.142 1.26-2.778.728-.638 1.705-.956 2.934-.956 1.238 0 2.219.343 2.941 1.029.723.686 1.084 1.536 1.084 2.55 0 .516-.106 1.023-.318 1.521-.211.498-.563 1.023-1.053 1.574s-1.304 1.307-2.439 2.268c-.951.798-1.563 1.338-1.834 1.623-.271.283-.496.569-.672.856h6.331z" transform="matrix(.95 0 0 .95 5.1188 3.029625)"/><path d="m114.5056 95.355375h-7.2675l2.8025-27.74095.855-.4275.855.4275z"/><path d="m78.2156 47.426925v1.85345l-31.825 18.38155-1.615-.95z"/><path d="m0 48.77c0-2.853.766-5.085 2.298-6.698 1.532-1.614 3.51-2.421 5.933-2.421 1.587 0 3.017.379 4.291 1.137 1.274.759 2.245 1.815 2.914 3.171s1.002 2.894 1.002 4.612c0 1.743-.352 3.302-1.055 4.677s-1.7 2.417-2.99 3.124-2.681 1.061-4.174 1.061c-1.618 0-3.064-.391-4.338-1.172s-2.239-1.849-2.896-3.2-.985-2.783-.985-4.291zm2.344.029c0 2.07.557 3.701 1.671 4.893s2.512 1.787 4.192 1.787c1.712 0 3.121-.602 4.228-1.805 1.106-1.203 1.659-2.91 1.659-5.121 0-1.398-.236-2.619-.709-3.662s-1.165-1.852-2.076-2.426-1.933-.861-3.066-.861c-1.61 0-2.996.553-4.157 1.658s-1.742 2.951-1.742 5.537z" transform="matrix(.95 0 0 .95 5.1188 3.029625)"/><path d="m48.8131 64.860375-.8075 1.37655-24.7475-14.24905.8075-1.425z"/><path d="m45.9631 69.751925-.8075 1.425-24.7-14.29655.8075-1.37845z"/><g transform="matrix(.95 0 0 .95 5.1188 3.029625)"><path d="m34.35 108.319c0-2.853.766-5.085 2.298-6.698 1.532-1.614 3.51-2.421 5.933-2.421 1.587 0 3.017.379 4.291 1.137 1.274.759 2.245 1.815 2.914 3.171s1.002 2.894 1.002 4.612c0 1.743-.352 3.302-1.055 4.677s-1.7 2.417-2.99 3.124-2.681 1.061-4.174 1.061c-1.618 0-3.064-.391-4.338-1.172s-2.239-1.849-2.896-3.2-.985-2.782-.985-4.291zm2.344.03c0 2.07.557 3.701 1.671 4.893s2.512 1.787 4.192 1.787c1.712 0 3.121-.602 4.228-1.805 1.106-1.203 1.659-2.91 1.659-5.121 0-1.398-.236-2.619-.709-3.662s-1.165-1.852-2.076-2.426-1.933-.861-3.066-.861c-1.61 0-2.996.553-4.157 1.658s-1.742 2.951-1.742 5.537z"/><path d="m53.799 116.685v-17.188h2.281v7.063h8.891v-7.063h2.281v17.188h-2.281v-8.094h-8.891v8.094z"/></g><path d="m46.3906 95.069425h-1.615v-28.3575l1.615.95z"/></svg>